<?xml version="1.0" encoding="UTF-8" standalone="no"?>
<svg
   width="32px"
   height="32px"
   viewBox="0 0 210 297"
   version="1.1"
   id="svg1"
   sodipodi:docname="klacks1.svg"
   inkscape:version="1.4.2 (f4327f4, 2025-05-13)"
   xmlns:inkscape="http://www.inkscape.org/namespaces/inkscape"
   xmlns:sodipodi="http://sodipodi.sourceforge.net/DTD/sodipodi-0.dtd"
   xmlns="http://www.w3.org/2000/svg"
   xmlns:svg="http://www.w3.org/2000/svg">
  <defs
     id="defs1" />
  <sodipodi:namedview
     id="namedview1"
     pagecolor="#505050"
     bordercolor="#eeeeee"
     borderopacity="1"
     inkscape:showpageshadow="0"
     inkscape:pageopacity="0"
     inkscape:pagecheckerboard="0"
     inkscape:deskcolor="#505050"
     inkscape:zoom="20.1875"
     inkscape:cx="16.024768"
     inkscape:cy="16"
     inkscape:window-width="1440"
     inkscape:window-height="890"
     inkscape:window-x="5353"
     inkscape:window-y="-6"
     inkscape:window-maximized="1"
     inkscape:current-layer="svg1" />
  <path
     style="fill:#808080;stroke-width:1.07019"
     d="m 98.316467,262.57697 c -0.4436,-1.12772 -2.60886,-6.69383 -4.811683,-12.36915 -3.534268,-9.10557 -4.343575,-10.90978 -6.883643,-15.34583 -3.931471,-6.86604 -11.06347,-18.86815 -14.543124,-24.47396 -6.245052,-10.06092 -6.893698,-10.82423 -17.754756,-20.89332 -3.52655,-3.2694 -7.183817,-6.66268 -8.12726,-7.54062 -0.943443,-0.87795 -2.667484,-2.59692 -3.831202,-3.81993 -5.510507,-5.7913 -8.496272,-15.22471 -7.360816,-23.25623 0.475454,-3.36307 3.190278,-13.88641 4.38763,-17.00756 1.238516,-3.22845 2.580066,-5.0768 4.337471,-5.97604 1.214638,-0.62152 1.557438,-0.67487 3.447323,-0.53653 1.154214,0.0845 2.094315,0.0712 2.089112,-0.0294 -0.0053,-0.10067 -0.345409,-0.65929 -0.756017,-1.24138 -0.814396,-1.1545 -0.968619,-2.59822 -0.394973,-3.69751 0.19508,-0.37383 2.070064,-1.91165 4.166629,-3.41736 11.685156,-8.39207 17.794229,-11.19331 27.261337,-12.50036 3.594853,-0.49632 12.797283,-0.59211 16.032032,-0.16689 1.04832,0.1378 1.97001,0.16015 2.04821,0.0497 0.0782,-0.11049 -0.99636,-1.78807 -2.3879,-3.72797 C 85.125194,92.533209 82.452066,86.044015 83.482245,78.096368 c 1.059851,-8.176575 5.090036,-14.088856 11.480532,-16.841935 1.97967,-0.852858 3.98771,-0.769665 5.077013,0.210341 0.38166,0.343365 2.32236,3.065084 4.31264,6.048261 4.37992,6.564942 5.82573,8.559543 6.05769,8.357015 0.0967,-0.08444 0.49209,-1.255165 0.87864,-2.601621 1.09832,-3.825679 2.7978,-6.57084 5.53277,-8.937003 3.74922,-3.243652 6.79997,-4.226724 13.11668,-4.226724 4.4926,0 4.03481,-0.390949 4.33748,3.704166 0.24303,3.288245 1.90907,20.414538 2.1399,21.997434 l 0.17902,1.227643 2.54538,-0.896162 c 4.28728,-1.50945 9.4454,-2.473505 13.2851,-2.482995 l 0.8783,-0.0021 -0.18726,17.396352 c -0.10296,9.56799 -0.3302,20.89662 -0.50489,25.17472 l -0.31764,7.77837 1.19482,2.67267 c 1.29918,2.9061 2.51677,6.86641 3.03362,9.86711 0.7157,4.1552 0.46296,6.7713 -1.77714,18.39556 -4.49406,23.32034 -5.95332,34.21097 -6.28505,46.90584 -0.19515,7.46856 0.13092,12.26794 1.12349,16.53646 0.5149,2.21432 1.28715,3.80493 6.48715,13.36146 5.13765,9.44194 5.84179,10.88841 5.43292,11.16035 -0.99839,0.66401 -6.49643,2.54941 -6.74402,2.31268 -0.14029,-0.13418 -2.86108,-5.06595 -6.04621,-10.95954 -6.22119,-11.51137 -6.58522,-12.39563 -7.51556,-18.25625 -0.64772,-4.08032 -0.73301,-17.36129 -0.15036,-23.41563 1.08468,-11.27114 2.79461,-22.3548 5.96381,-38.65708 2.23304,-11.48663 2.40692,-13.84907 1.35199,-18.36891 -1.3421,-5.7503 -3.44907,-9.79275 -8.68362,-16.66046 -14.43182,-18.93446 -33.76151,-45.50297 -41.040603,-56.409984 -1.23369,-1.848562 -2.4014,-3.366608 -2.59492,-3.373437 -0.56012,-0.01976 -1.9441,1.570156 -2.868098,3.294874 -1.48523,2.772315 -1.910598,4.675844 -1.921549,8.598959 -0.0086,3.062025 0.09294,3.846147 0.711035,5.49335 1.650592,4.398807 5.566952,10.594856 14.105755,22.316578 4.49797,6.17466 4.76774,6.83496 3.52149,8.61954 -1.12421,1.60984 -2.32047,1.77422 -6.68169,0.91811 -9.976482,-1.95838 -18.426842,-2.10201 -25.927493,-0.44071 -3.956598,0.87634 -6.696055,1.95171 -10.07333,3.95428 -3.509369,2.08089 -9.127255,5.92503 -9.562418,6.54325 -0.24587,0.3493 -0.06471,0.67899 0.872323,1.5875 3.840438,3.72356 6.950228,4.80727 10.910347,3.80208 0.96768,-0.24562 3.646364,-1.27193 5.952635,-2.28069 6.377727,-2.78961 8.149926,-3.25234 12.373527,-3.23077 2.504602,0.0128 4.139043,0.17063 5.810683,0.56115 5.186743,1.21167 10.127906,3.56845 13.152356,6.27327 5.95778,5.32815 9.87981,14.76764 8.91226,21.44993 -1.07346,7.41376 -7.08434,14.56516 -16.137033,19.19889 -4.44104,2.2732 -13.537383,5.51233 -15.474498,5.51034 -1.326419,-0.001 -2.084485,-0.46029 -7.627301,-4.61744 -11.733856,-8.80049 -18.435705,-14.66965 -20.066793,-17.57353 l -0.79882,-1.42217 0.05804,-6.59369 0.05804,-6.59368 -1.568422,-1.44798 c -2.310136,-2.13274 -5.955574,-4.50627 -6.367991,-4.14618 -0.480659,0.41968 -1.566132,3.84642 -3.192498,10.07842 -1.366734,5.23712 -1.425536,5.63089 -1.4281,9.56307 -0.003,4.57338 0.444278,6.57632 2.349077,10.51978 1.661406,3.43957 2.119708,3.9263 14.011337,14.88022 10.895242,10.03611 12.513615,11.79538 16.550724,17.99167 4.089915,6.27733 11.436336,18.49375 17.819039,29.6314 2.928516,5.11021 3.411076,6.20434 8.390449,19.02441 4.10409,10.5665 5.19456,13.65147 4.88595,13.82235 -0.2185,0.12099 -2.03363,0.22175 -4.03361,0.22391 l -3.636343,0.004 z m -9.260936,-90.1055 c 5.443246,-2.05646 9.375956,-4.16292 11.907619,-6.37803 3.6772,-3.21743 5.85838,-6.47652 6.52974,-9.75665 0.98794,-4.82679 -2.16552,-12.43161 -6.8291,-16.46891 -3.005423,-2.60183 -7.87435,-4.49506 -12.349189,-4.80187 -2.935846,-0.20129 -4.004072,0.0902 -10.403518,2.83849 -2.666643,1.14523 -5.672513,2.26269 -6.679709,2.48324 -2.552399,0.55893 -5.783961,0.76157 -7.47724,0.46888 -0.786384,-0.13593 -1.484517,-0.19936 -1.5514,-0.14096 -0.06689,0.0584 0.05918,0.54834 0.280136,1.08876 0.291701,0.71342 0.40539,2.80881 0.415048,7.64956 l 0.0133,6.667 1.477287,1.54993 c 3.133162,3.28724 19.378895,16.17137 20.418371,16.19336 0.292718,0.006 2.204614,-0.62057 4.248656,-1.3928 z m 56.086499,-58.65635 c 0.10525,-4.58391 0.28224,-11.47857 0.39335,-15.321465 l 0.20203,-6.987085 -0.96933,0.16927 c -1.29302,0.225798 -5.76141,1.922394 -6.68096,2.536688 l -0.73249,0.489344 1.24189,10.986318 1.2419,10.98633 2.34958,3.08029 c 1.4967,1.96218 2.42456,2.95586 2.55614,2.73749 0.11361,-0.18854 0.29266,-4.09328 0.39789,-8.67718 z M 130.3664,102.1073 c -0.2975,-2.17718 -2.50369,-22.999258 -3.09773,-29.236453 -0.60044,-6.304296 -0.50575,-6.134266 -2.83786,-5.095449 -4.22445,1.881733 -6.29429,6.425586 -6.56961,14.422012 l -0.15486,4.497916 5.81567,7.9375 c 3.19862,4.365625 5.97057,8.145854 6.15989,8.400514 0.62057,0.83478 0.87759,0.48707 0.6845,-0.92604 z"
     id="path1"
     inkscape:label="path1" />
  <circle
     cx="105"
     cy="148.5"
     r="120"
     style="fill:none;stroke:#2890CE;stroke-width:20"
     id="circle1" />
</svg>
